<svg id="Camada_1" data-name="Camada 1" xmlns="http://www.w3.org/2000/svg" xmlns:xlink="http://www.w3.org/1999/xlink" viewBox="0 0 73.329 73.329"><defs><style>.cls-1{fill:none;}.cls-2{clip-path:url(#clip-path);}.cls-3{fill:#fff799;}</style><clipPath id="clip-path"><rect class="cls-1" x="-918.445" y="450.58" width="3216.451" height="2000"/></clipPath></defs><title>instagram</title><g class="cls-2"><image width="1668" height="2500" transform="translate(-918.445 -1142.398) scale(1.928)" xlink:href="Links/DSC06953%20(2022-06-29T00_05_13.639).jpg"/></g><path class="cls-3" d="M58.385,0H14.944A14.961,14.961,0,0,0,0,14.944V58.385A14.963,14.963,0,0,0,14.944,73.329H58.385A14.965,14.965,0,0,0,73.329,58.385V14.944A14.963,14.963,0,0,0,58.385,0ZM14.944,5.977H58.385a8.978,8.978,0,0,1,8.966,8.967V33.676H53.667a17.255,17.255,0,0,0-34.006,0H5.977V14.944a8.978,8.978,0,0,1,8.966-8.967ZM47.99,36.665a11.34,11.34,0,1,1-3.321-8A11.327,11.327,0,0,1,47.99,36.665ZM58.384,67.353H14.943a8.976,8.976,0,0,1-8.966-8.966V39.655H19.662a17.255,17.255,0,0,0,34.006,0H67.352V58.387h0a8.974,8.974,0,0,1-8.966,8.966ZM51.342,13.881a2.987,2.987,0,0,1,2.989-2.989h3.94a2.989,2.989,0,1,1,0,5.977h-3.94a2.987,2.987,0,0,1-2.989-2.988Z"/></svg>