<svg id="Camada_1" data-name="Camada 1" xmlns="http://www.w3.org/2000/svg" viewBox="0 0 502.104 133.995"><defs><style>.cls-1{fill:#fff799;}</style></defs><title>libatio</title><path class="cls-1" d="M433.834,58.516c0-11.59,10.46-17.951,28.411-17.951,17.809,0,28.693,6.361,28.693,17.951,0,11.45-9.329,32.792-28.693,32.792s-28.411-21.342-28.411-32.792m27.139-42.544c-22.757,0-38.871,10.6-38.871,29.824,0,30.247,14.7,71.8,38.871,71.8,24.31,0,41.131-41.556,41.131-71.8,0-19.224-18.233-29.824-41.131-29.824m-79,74.63c0,6.785,7.068,8.057,15.973,8.057,9.47,0,15.831-1.979,15.831-7.491,0-4.947-3.393-11.591-6.22-19.789A63.987,63.987,0,0,1,403.6,49.894c0-22.615,9.894-37.88,9.894-44.1C413.5,1.414,410.67,0,404.733,0c-11.59,0-22.474,6.643-22.474,13.144,0,8.057,10.884,20.213,10.884,37.74,0,6.784-2.261,13.427-4.665,19.647-3.109,7.774-6.5,14.276-6.5,20.071M302.273,0c-7.633,0-12.58,9.47-12.58,19.505,0,5.8,1.838,10.6,5.937,10.6,6.078,0,13.569-7.916,21.2-7.916,3.251,0,5.8,1.7,5.8,8.48,0,17.669-11.308,49.047-11.308,58.376,0,7.774,5.655,9.612,15.831,9.612s16.961-1.414,16.961-9.612c0-9.329-11.307-34.63-11.307-57.1,0-6.643,2.121-9.752,7.774-9.752,4.1,0,9.47,2.261,13.993,4.806,3.251,1.837,5.654,3.25,8.2,3.25,6.643,0,10.882-12.014,10.882-20.636,0-7.633-2.4-9.611-6.643-9.611-9.187,0-22.474,11.448-36.608,11.59-7.35.142-13.993-3.957-19.222-7.491-3.393-2.261-6.5-4.1-8.906-4.1M237.411,87.775c0-9.47,10.742-25.725,17.527-25.725,5.655,0,9.894,9.47,9.894,16.538,0,9.469-10.318,15.83-20.07,15.83-5.372,0-7.351-2.12-7.351-6.643M272.323,58.94c-6.077-16.113-2.968-32.65-5.795-38.445-1.272-2.686-4.1-4.523-9.328-4.523-9.329,0-17.81,5.371-17.81,11.166,0,4.665,5.513,11.025,5.513,18.516,0,5.371-2.827,10.46-9.612,19.93-19.93,27.7-23.6,32.651-23.6,38.728,0,6.927,4.947,12.014,13.71,12.014,11.166,0,21.484-8.056,29.541-14.134,4.806-3.533,8.622-6.36,12.156-6.36,2.544,0,4.1.989,4.1,3.533,0,2.969-1.131,5.513-1.131,8.622,0,5.654,4.241,8.339,12.3,8.339,5.655,0,10.46-1.412,13.428-3.391,3.109-2.12,3.957-4.665,3.957-6.785,0-5.654-5.935-13.146-12.438-22.191-5.512-7.35-11.448-15.831-14.983-25.019M146.683,98.093c0-6.5,4.382-10.6,11.591-10.6,11.872,0,20.919,5.935,20.919,14.417,0,9.187-9.612,18.515-17.951,18.515-8.2,0-14.559-9.328-14.559-22.332M144.7,69.682c0-9.894,6.219-18.091,15.124-18.091,7.067,0,12.014,4.523,12.014,11.166,0,9.046-7.773,16.537-17.385,16.537-7.209,0-9.753-2.685-9.753-9.612M135.234,134c8.622,0,15.124-3.958,23.464-3.958,8.48,0,10.318,3.816,17.243,3.816,13.711,0,26.149-15.971,26.149-31.519,0-6.219-1.979-10.318-5.371-13.287-3.109-2.826-6.219-3.675-11.59-5.512-2.545-.849-3.533-1.837-3.533-3.251,0-2.4,1.272-3.534,3.957-5.8,4.806-4.241,8.481-9.754,8.481-17.1,0-11.732-9.47-23.746-19.93-23.746-3.251,0-6.785,1.13-11.449,4.1-4.1,2.4-6.926,4.664-11.873,4.664-6.5,0-16.961-7.067-23.322-7.067a5.677,5.677,0,0,0-5.937,6.077c0,9.047,12.3,30.249,12.3,45.09,0,17.951-12.015,30.672-12.015,39.294,0,5.088,5.088,8.2,13.428,8.2m-57.369-8.057c0,6.785,7.067,8.057,15.972,8.057,9.47,0,15.831-1.978,15.831-7.491,0-4.947-3.392-11.59-6.219-19.789a63.986,63.986,0,0,1-3.958-21.484c0-22.616,9.895-37.881,9.895-44.1,0-4.381-2.828-5.8-8.764-5.8-11.59,0-22.474,6.643-22.474,13.145,0,8.057,10.884,20.213,10.884,37.74,0,6.783-2.262,13.427-4.665,19.647-3.11,7.773-6.5,14.275-6.5,20.07M68.836,81.98c-3.252,0-5.8,2.968-13.146,11.166-5.936,6.643-8.621,9.753-14.134,9.753-9.752,0-19.788-11.307-19.788-35.053,0-22.616,9.752-37.315,9.752-44.524,0-4.1-2.968-5.654-8.9-5.654C10.6,17.668.283,24.452.283,30.813c0,7.915,10.883,20.354,10.883,37.881C11.166,84.241,0,98.235,0,107.846c0,6.784,5.654,8.48,13.852,8.48,8.481,0,15.69-3.957,23.181-3.957,7.774,0,13.569,4.947,20.212,4.947,10.319,0,15.69-13.569,15.69-26.855,0-6.22-2.12-8.481-4.1-8.481"/></svg>